<?xml version="1.0" encoding="UTF-8" standalone="no"?>
<!-- Created with Inkscape (http://www.inkscape.org/) -->

<svg
   width="157.24364mm"
   height="65.988579mm"
   viewBox="0 0 157.24364 65.988579"
   version="1.1"
   id="svg1"
   xml:space="preserve"
   inkscape:export-filename="machinalogo.svg"
   inkscape:export-xdpi="500"
   inkscape:export-ydpi="500"
   inkscape:version="1.3.2 (091e20e, 2023-11-25)"
   sodipodi:docname="machinalogo.svg"
   xmlns:inkscape="http://www.inkscape.org/namespaces/inkscape"
   xmlns:sodipodi="http://sodipodi.sourceforge.net/DTD/sodipodi-0.dtd"
   xmlns:xlink="http://www.w3.org/1999/xlink"
   xmlns="http://www.w3.org/2000/svg"
   xmlns:svg="http://www.w3.org/2000/svg"><sodipodi:namedview
     id="namedview1"
     pagecolor="#ffffff"
     bordercolor="#000000"
     borderopacity="0.25"
     inkscape:showpageshadow="2"
     inkscape:pageopacity="0.0"
     inkscape:pagecheckerboard="0"
     inkscape:deskcolor="#d1d1d1"
     inkscape:document-units="mm"
     inkscape:zoom="0.57122991"
     inkscape:cx="436.77685"
     inkscape:cy="373.75494"
     inkscape:window-width="1440"
     inkscape:window-height="762"
     inkscape:window-x="0"
     inkscape:window-y="25"
     inkscape:window-maximized="0"
     inkscape:current-layer="layer1" /><defs
     id="defs1"><linearGradient
       id="linearGradient122621"
       inkscape:collect="always"><stop
         style="stop-color:#ffe233;stop-opacity:1;"
         offset="0"
         id="stop122621" /><stop
         style="stop-color:#ff7d25;stop-opacity:1;"
         offset="1"
         id="stop122622" /></linearGradient><linearGradient
       id="linearGradient122606"
       inkscape:swatch="gradient"><stop
         style="stop-color:#ffe280;stop-opacity:1;"
         offset="0"
         id="stop122606" /><stop
         style="stop-color:#ff9d51;stop-opacity:1;"
         offset="1"
         id="stop122607" /></linearGradient><radialGradient
       inkscape:collect="always"
       xlink:href="#linearGradient122621"
       id="radialGradient122639"
       cx="90.161201"
       cy="54.55579"
       fx="90.161201"
       fy="54.55579"
       r="78.621986"
       gradientTransform="matrix(1,0,0,0.41965577,0,31.661139)"
       gradientUnits="userSpaceOnUse" /></defs><g
     inkscape:label="Layer 1"
     inkscape:groupmode="layer"
     id="layer1"
     transform="translate(-11.539307,-21.561509)"><path
       id="path122605"
       style="mix-blend-mode:multiply;fill:url(#radialGradient122639)"
       d="m 37.103162,21.573877 c -0.338025,0 -0.823111,0.164398 -0.884701,0.299723 -0.05828,0.128044 -0.433594,1.082912 -1.931665,4.913912 -0.331425,0.847548 -1.244584,3.18245 -2.029333,5.188314 -0.784754,2.00586 -1.716673,4.39018 -2.071192,5.298385 l -0.644922,1.651062 -0.06098,-0.212907 c -0.03356,-0.11716 -0.517434,-1.900179 -1.075386,-3.962549 -0.557958,-2.062369 -1.508875,-5.575914 -2.11305,-7.807792 -0.60417,-2.231878 -1.166583,-4.311948 -1.250053,-4.62194 -0.08347,-0.309997 -0.156347,-0.567675 -0.161747,-0.572575 -0.0054,-0.0049 -0.215317,0.04172 -0.466638,0.103353 L 23.95616,21.963 23.467818,23.193933 c -0.268579,0.677052 -0.672497,1.704942 -0.898136,2.284098 -0.225639,0.57916 -0.858263,2.19719 -1.405599,3.595647 -0.547342,1.398451 -1.609879,4.114177 -2.361096,6.03529 -0.751222,1.92111 -1.813755,4.637357 -2.361097,6.035807 -0.547336,1.398455 -1.17527,3.004783 -1.39578,3.569808 -0.220511,0.56504 -0.848893,2.17187 -1.396297,3.570325 -2.62467,6.705215 -2.382056,5.577586 -1.506885,7.000606 0.386004,0.62763 1.119371,1.822754 1.629875,2.656169 1.119305,1.82728 1.177555,1.915369 1.227315,1.863969 0.02154,-0.02225 0.186814,-0.421646 0.367419,-0.887801 0.18061,-0.46615 0.685643,-1.760882 1.122413,-2.876827 1.558306,-3.98146 1.910811,-4.881659 2.743501,-7.011459 0.463917,-1.18656 1.0919,-2.792888 1.395781,-3.569808 0.303877,-0.776915 0.818847,-2.094561 1.144116,-2.927986 0.32527,-0.833425 0.866865,-2.220303 1.204061,-3.081983 0.337195,-0.861675 1.056383,-2.699653 1.597835,-4.083988 0.541456,-1.384335 1.15943,-2.962094 1.373043,-3.506246 0.213614,-0.544151 0.403536,-0.97183 0.422196,-0.95033 0.01866,0.0215 0.172408,0.559096 0.342098,1.19476 0.169695,0.63566 0.744143,2.76443 1.276408,4.73046 l 0.9679,3.574976 -0.17725,0.457336 c -0.244104,0.62907 -0.287608,0.505617 0.804602,2.292367 2.671346,4.370025 2.575883,4.222869 2.664953,4.122229 0.02403,-0.02715 0.354506,-0.846915 0.734322,-1.821595 0.37982,-0.974685 1.048043,-2.685373 1.484664,-3.801318 0.436625,-1.115935 0.869872,-2.225347 0.962732,-2.465482 0.09286,-0.24014 0.548867,-1.407587 1.013375,-2.594157 0.464513,-1.186565 1.155432,-2.954791 1.535307,-3.929476 0.379875,-0.97468 0.705517,-1.789729 0.723987,-1.811259 0.01847,-0.02153 0.150672,0.394434 0.293522,0.924491 0.14285,0.530062 0.697844,2.581802 1.233516,4.559412 0.535676,1.97761 1.218587,4.49914 1.51722,5.603275 l 0.542603,2.00763 -0.215491,0.534851 c -0.395504,0.981055 -1.939451,4.958842 -2.016931,5.196582 -0.02715,0.0829 -0.157602,0.08992 -1.78232,0.08992 -1.524569,0 -1.753381,0.01 -1.753381,0.077 0,0.0669 0.22323,0.077 1.704288,0.077 h 1.704289 l -0.03566,0.115755 c -0.01971,0.06357 -0.280602,0.739965 -0.579809,1.50275 -0.299212,0.7628 -0.797543,2.034106 -1.106909,2.825151 -0.309371,0.791045 -0.918173,2.347222 -1.352889,3.458187 -0.815033,2.08293 -0.842499,2.166276 -0.714169,2.166276 0.04189,0 0.07648,0.02296 0.07648,0.05116 v 5.16e-4 c 0,0.064 0.216277,0.06735 0.281637,0.0047 0.02653,-0.0255 0.09064,-0.05408 0.142627,-0.06408 0.07364,-0.01389 0.352068,-0.676033 1.259354,-2.997233 0.64048,-1.63859 1.509758,-3.863406 1.932182,-4.944401 l 0.768429,-1.965771 1.674833,0.01344 1.674833,0.01344 0.03927,0.128674 c 0.02151,0.07063 0.257217,0.937692 0.523999,1.926497 l 0.485242,1.797823 0.216007,0.196888 c 0.726156,0.662135 0.978875,0.861365 0.994255,0.784965 0.01261,-0.06259 -0.808669,-3.188837 -1.188041,-4.522722 -0.03963,-0.13933 -0.07183,-0.273027 -0.07183,-0.296622 0,-0.0232 0.585209,-0.03594 1.300695,-0.02894 l 1.300696,0.01344 0.450619,1.669665 c 0.247885,0.918175 0.522295,1.929578 0.609265,2.247408 l 0.15813,0.577743 h 0.324011 c 0.178329,0 0.324528,-0.01272 0.324528,-0.02842 0,-0.03806 -1.158734,-4.323415 -1.218014,-4.504635 l -0.04599,-0.141077 h 1.152385 l 1.152384,5.17e-4 0.110071,0.397909 c 0.0606,0.218735 0.122516,0.431989 0.137976,0.474389 0.01987,0.05445 -0.126501,0.18117 -0.499194,0.432015 -0.718265,0.48345 -0.702194,0.672175 0.166398,1.984375 0.356163,0.53806 0.362695,0.538992 1.0573,0.186552 l 0.550871,-0.279569 0.522448,0.529683 0.522449,0.529684 -0.278536,0.561722 c -0.342548,0.69103 -0.340305,0.703752 0.191203,1.059367 1.310844,0.877055 1.481822,0.893431 1.952852,0.189136 l 0.372071,-0.556038 0.37207,0.119372 c 0.204543,0.06572 0.519346,0.146751 0.699699,0.180351 l 0.327628,0.0615 0.03204,0.415995 c 0.01761,0.2289 0.03239,0.556158 0.03256,0.727088 4.35e-4,0.443905 0.826147,0.595451 2.058789,0.378271 l 0.315226,-0.05529 0.03514,-0.625285 c 0.04967,-0.876525 0.03107,-0.833104 0.400492,-0.906404 0.172303,-0.03419 0.483195,-0.116652 0.691431,-0.183452 0.208237,-0.06677 0.38244,-0.117104 0.38654,-0.111104 0.0041,0.0059 0.170885,0.259568 0.371037,0.563273 0.260218,0.39486 0.393084,0.551904 0.465604,0.551904 0.217619,0 1.6736,-0.823582 1.896525,-1.072802 l 0.08733,-0.09767 -0.301791,-0.609782 -0.302307,-0.609265 0.504879,-0.507979 c 0.613045,-0.616745 0.612616,-0.598262 0.01705,-1.119312 -0.608165,-0.532095 -0.578609,-0.528184 -0.949813,-0.118339 -2.819491,3.113025 -7.855169,2.44715 -9.903788,-1.30948 -0.154001,-0.2824 -0.494027,-1.078736 -0.494027,-1.157036 0,-0.0133 2.844476,-0.02429 6.321061,-0.02429 h 6.321062 v 4.263306 4.263306 H 62.466979 60.28365 v 0.102836 0.102836 h 10.027295 10.027811 v -0.102836 -0.102836 h -2.082043 -2.081527 v -0.744658 -0.744657 h 4.417302 4.416784 v -3.519165 -3.519165 l 2.293917,0.01344 2.293917,0.01344 0.03462,0.128157 c 0.04528,0.16708 2.895421,6.355324 3.560506,7.730794 l 0.372588,0.770496 0.01292,-4.327901 0.01292,-4.327385 h 1.345137 c 0.926735,0 1.345138,0.01719 1.345138,0.05529 0,0.03041 -0.30825,1.142472 -0.68523,2.471167 -0.376975,1.328685 -0.685746,2.424927 -0.685746,2.436027 0,0.0112 0.14772,0.02015 0.328145,0.02015 h 0.328146 l 0.05271,-0.192753 c 0.02899,-0.10594 0.335565,-1.186579 0.681095,-2.401404 l 0.627869,-2.208651 h 3.589966 3.58944 l 1.78594,4.506702 1.78594,4.506702 0.34261,5.16e-4 c 0.42805,7.8e-4 0.59518,0.54819 -1.26401,-4.140315 -0.88366,-2.22856 -1.69333,-4.271375 -1.79885,-4.539775 l -0.19172,-0.487825 1.44332,-0.01395 c 1.23632,-0.0117 1.44332,-0.02462 1.44332,-0.08992 0,-0.0657 -0.20452,-0.07596 -1.47381,-0.07596 h -1.47381 l -0.0491,-0.141594 c -0.0272,-0.07769 -0.0725,-0.18106 -0.10025,-0.22996 -0.0278,-0.04893 -0.0929,-0.19913 -0.1447,-0.33383 -0.0518,-0.1347 -1.03134,-2.614473 -2.17661,-5.510258 -1.14527,-2.895795 -2.12319,-5.375659 -2.17299,-5.510774 -0.08826,-0.23959 -0.15731,-0.330703 -0.20981,-0.277503 -0.10222,0.10342 -3.27561,11.02657 -3.40496,11.720215 -0.05411,0.2898 -0.02075,0.283704 -1.493449,0.283704 h -1.364258 v -5.547982 -5.547465 h -0.27957 -0.279052 v 5.548498 5.548499 l -1.424719,-0.01395 -1.42472,-0.01344 -0.14056,-0.333829 c -0.07751,-0.18364 -0.530737,-1.177466 -1.006657,-2.208651 -0.475905,-1.031185 -1.327345,-2.880365 -1.89239,-4.10931 -0.56504,-1.228945 -1.226418,-2.662169 -1.469678,-3.184819 l -0.44235,-0.950329 1.260388,-0.01395 1.260388,-0.01344 v -0.12764 -0.127641 h -5.051888 -5.051888 v 0.128674 0.128158 h 1.015442 1.015442 v 5.419307 5.419308 H 77.927026 76.175195 V 43.610775 37.44681 h 14.723649 14.724166 v -0.102836 -0.10232 l -20.423043,-0.01292 c -11.232587,-0.007 -24.929843,-0.007 -30.437935,0 l -10.014376,0.01292 v 0.10232 0.102836 h 9.950814 9.951331 v 6.163965 6.163965 h -6.344316 -6.344316 l -0.04961,-0.192754 c -1.553316,-6.043755 6.307908,-10.309945 10.489799,-5.692675 0.37218,0.410895 0.273648,0.42056 0.904854,-0.08578 0.666947,-0.53503 0.666534,-0.507036 0.02119,-1.158586 l -0.510047,-0.515214 0.281637,-0.568441 c 0.381629,-0.769855 0.340558,-0.833547 -0.981336,-1.513602 -0.795161,-0.40908 -0.687052,-0.431826 -1.142565,0.242879 l -0.394808,0.58446 -0.372071,-0.119889 c -0.204607,-0.06574 -0.520594,-0.146967 -0.702282,-0.180867 l -0.330213,-0.06149 -0.03101,-0.59583 c -0.03885,-0.745955 -0.06417,-0.832834 -0.257348,-0.888834 -0.262429,-0.0763 -1.806267,-0.07465 -1.986442,0.0021 l -0.158647,0.06718 -0.03359,0.574125 c -0.05139,0.876225 -0.03273,0.833922 -0.400492,0.906922 -0.173043,0.03434 -0.485261,0.117168 -0.693498,0.183968 -0.208236,0.06676 -0.381923,0.116587 -0.386023,0.110587 -0.0041,-0.0059 -0.171406,-0.259046 -0.371553,-0.562756 -0.427613,-0.648845 -0.39522,-0.638968 -1.035079,-0.314193 -1.423155,0.72234 -1.479195,0.800966 -1.105359,1.555461 l 0.296106,0.598413 -0.522966,0.526583 -0.523482,0.527099 -0.58136,-0.293005 c -0.690252,-0.34762 -0.668596,-0.351465 -1.024227,0.200505 -0.874014,1.35657 -0.887303,1.499821 -0.185518,1.980241 l 0.549837,0.376721 -0.117822,0.376204 c -0.06495,0.20694 -0.145571,0.525497 -0.178801,0.707967 l -0.06046,0.331763 -0.411344,0.03204 c -0.226254,0.0178 -0.516097,0.0329 -0.644405,0.03307 -0.381605,5e-4 -0.5013,0.306135 -0.501262,1.28416 3.9e-5,0.977405 0.07054,1.127197 0.531234,1.131197 0.301646,0.0024 0.984961,0.07667 1.012341,0.110071 0.0078,0.0095 0.02912,0.08095 0.04754,0.158646 l 0.03359,0.141077 h -1.156002 -1.156001 l -0.448035,-1.65623 c -0.693489,-2.565175 -2.297367,-8.494725 -2.553333,-9.4387 -0.315393,-1.163165 -0.278198,-1.109601 -0.460953,-0.663526 -0.08578,0.20936 -0.394229,0.95873 -0.68523,1.665015 -0.291001,0.706295 -0.651267,1.602121 -0.800985,1.990576 -0.342414,0.888445 -0.232454,1.074576 -0.959631,-1.617989 -0.34525,-1.278385 -1.034606,-3.82687 -1.532206,-5.66322 -0.497602,-1.836393 -1.189099,-4.390695 -1.536857,-5.676139 -2.102865,-7.772953 -1.921878,-7.140133 -2.043286,-7.140133 z m 87.963108,6.844543 c -1.26906,-0.08597 -2.57208,0.607304 -3.70003,2.042253 -1.35012,1.717532 -2.05932,3.623829 -2.6846,7.216614 l -0.14314,0.822172 -0.0879,-0.436666 c -0.0486,-0.24014 -0.13427,-0.690734 -0.19017,-1.001489 -0.85662,-4.764888 -2.92901,-7.581879 -5.87871,-7.989693 -3.00789,-0.415863 -4.80682,1.3024 -5.46013,5.215702 -0.55725,3.33795 0.002,6.406397 2.05052,11.249442 1.19676,2.82957 2.07616,5.13935 2.78639,7.31945 0.35052,1.075925 0.62569,2.262552 0.74518,3.210657 0.0178,0.14125 0.0661,0.428521 0.10697,0.638721 0.45263,2.323765 -0.23359,5.440547 -1.68569,7.656897 -0.1018,0.155375 -0.2295,0.370537 -0.2837,0.478007 -0.0967,0.191745 -0.36528,0.577384 -0.54364,0.780314 -0.0497,0.05651 -0.19011,0.253026 -0.31161,0.436666 -3.03859,4.592585 -9.75889,6.828561 -15.764409,5.244641 -0.335085,-0.08837 -0.67791,-0.192944 -0.76171,-0.232544 -0.08377,-0.03958 -0.409325,-0.167561 -0.72347,-0.284221 -1.595695,-0.592515 -3.439273,-1.575222 -5.851323,-3.118672 -0.572446,-0.3663 -1.269497,-0.811942 -1.548743,-0.990637 -0.27924,-0.17869 -0.656165,-0.425204 -0.837675,-0.547254 -1.658175,-1.114945 -4.29302,-2.344658 -5.534029,-2.582788 -1.252402,-0.24031 -2.833034,-0.398848 -3.427181,-0.343648 -0.195457,0.0181 -0.629695,0.0556 -0.964799,0.0832 -2.496826,0.205326 -4.953937,1.007845 -6.302974,1.858801 -0.176422,-0.153701 -2.241207,-0.863068 -3.0856,-1.064018 -2.302959,-0.548065 -3.853923,-0.406377 -6.04821,0.552938 -0.610959,0.26676 -1.000504,0.317133 -2.054138,0.263033 -2.337384,-0.12011 -3.678794,0.03003 -6.219258,0.697115 -5.709806,1.499295 -11.273701,4.493475 -13.664799,7.35304 -0.886681,1.060405 -0.759589,1.476859 0.585494,1.916679 2.319357,0.758405 4.829719,0.615799 7.361824,-0.417546 0.039,-0.01592 -0.109192,0.127805 -0.329695,0.31936 -1.168066,1.014725 -2.672851,2.734802 -3.549138,4.057117 -1.576503,2.37894 -4.162093,8.129639 -3.888135,8.647534 0.225874,0.42699 5.568176,-0.928109 8.301819,-2.105814 3.910296,-1.684635 4.742268,-2.968247 6.273002,-9.674862 1.104775,-4.840355 1.548223,-5.88199 3.355868,-7.88479 0.553077,-0.612785 2.321748,-2.105815 2.494421,-2.105815 0.02023,0 0.210539,-0.106879 0.422714,-0.237194 0.841182,-0.51668 1.208587,-0.665484 2.182295,-0.882634 1.393104,-0.31068 4.52888,-0.205691 6.991305,0.535368 l 0.695565,0.20929 -0.389641,0.343131 c -0.605777,0.643865 -1.462778,1.8683 -1.437638,2.975529 l 0.0031,0.137976 0.0041,0.05788 c 0.09763,1.365714 1.046877,1.307277 2.146639,1.981274 l 0.24753,0.151929 0.595829,-0.29869 c 1.798265,-0.900869 1.697509,-3.706106 -0.291972,-5.114416 l -0.370003,-0.262517 0.499711,-0.28577 c 1.92473,-1.102471 5.532249,-1.734274 8.110099,-1.420069 0.335094,0.0408 0.625669,0.0696 0.645439,0.0646 0.139909,-0.03633 1.847745,0.397417 2.378666,0.604097 1.704524,0.66352 3.294565,1.565298 5.951058,3.374988 2.012185,1.370755 5.79513,3.331212 7.221265,3.742407 0.16755,0.04834 0.327634,0.106375 0.355534,0.128675 0.02793,0.02227 0.336179,0.102583 0.685229,0.178283 0.581835,0.12622 0.891995,0.179465 1.90376,0.326595 0.980725,0.1426 3.35094,0.116995 4.239544,-0.04547 0.96478,-0.17643 1.66209,-0.320889 1.84278,-0.381889 0.11736,-0.03963 0.36074,-0.110079 0.54053,-0.156579 5.02669,-1.299675 9.17489,-5.592072 10.34407,-11.027234 l 0.16485,-0.767395 0.0191,-1.098124 c -7.8e-4,-1.386595 -0.17286,-2.830003 -0.46922,-3.935678 -0.72394,-2.700985 -2.27185,-6.884731 -3.91242,-10.575581 -0.93895,-2.11239 -1.06601,-2.674898 -1.06609,-4.714958 -2.2e-4,-5.284515 2.78745,-9.460308 6.01049,-9.004102 1.38918,0.196634 3.23514,3.03528 3.79408,5.83427 0.0282,0.141255 0.11829,0.524017 0.19999,0.850077 0.15198,0.606795 0.23255,1.017495 0.40308,2.04897 0.10697,0.64698 0.10536,0.676142 -0.12042,2.109432 -0.38311,2.43222 -0.32953,3.26196 0.20774,3.22616 0.5391,-0.03592 0.73804,-1.438146 0.49094,-3.455086 -0.1664,-1.357925 0.17131,-3.6886 0.87281,-6.024955 0.93255,-3.105867 3.705,-5.846341 5.61154,-5.856491 2.02648,0.494456 3.29986,2.63434 3.23081,5.483903 -0.0751,3.096965 -0.9312,5.386088 -3.87159,10.350273 -3.99991,6.752895 -4.107,13.127941 0.10903,14.298352 l 0.54932,0.152962 0.58705,0.03307 c 0.6137,-1.03e-4 1.0833,-0.168307 1.40611,-0.28422 1.10158,0.231569 2.71781,-0.385478 3.52795,-1.623157 l 0.21291,-0.325561 0.10489,0.07493 c 1.66678,1.188245 3.45922,1.079411 4.72686,-0.286804 1.55508,-1.67602 2.49697,-6.481478 1.7265,-8.809798 -1.18902,-3.59321 -5.72487,-1.851614 -7.13342,2.738851 -0.69568,2.26711 -0.66892,4.476898 0.0693,5.659603 l 0.12454,0.198954 -0.13281,0.198954 c -1.29206,1.94075 -2.59421,2.282428 -4.16356,1.091923 -1.94946,-1.47885 -1.85315,-6.362329 0.26097,-13.234334 0.18015,-0.585605 0.37611,-1.271886 0.4351,-1.524971 0.0589,-0.2531 0.13985,-0.526615 0.17984,-0.607715 0.15456,-0.31346 1.03898,-3.452333 1.37821,-4.890658 0.60813,-2.578345 0.59846,-4.886889 -0.0269,-6.316927 -0.059,-0.135022 -0.10748,-0.264174 -0.10748,-0.286804 0,-0.19991 -0.82094,-1.31681 -1.25161,-1.702739 -0.692,-0.620253 -1.44145,-0.952502 -2.20288,-1.004082 z m 33.64084,7.596436 c -0.35788,0.06307 -0.76408,0.392923 -1.13843,1.107943 l -0.1354,0.258899 -0.25579,-0.237195 c -0.41159,-0.38201 -0.73505,-0.556206 -1.19786,-0.561206 l -0.3297,-0.0036 c -0.007,0.0017 -0.0141,0.0035 -0.0212,0.0047 -5.3e-4,8.8e-5 -10e-4,4.35e-4 -0.002,5.17e-4 -3.6e-4,1.25e-4 -6.7e-4,3.92e-4 -0.001,5.17e-4 -0.001,5.7e-4 -0.003,9.19e-4 -0.004,0.0016 -0.006,0.0024 -0.0111,0.0052 -0.0165,0.0078 -0.007,0.0031 -0.0134,0.0063 -0.0202,0.0093 -3.6e-4,1.58e-4 -7.3e-4,3.59e-4 -10e-4,5.17e-4 l -0.17725,0.08888 c -0.008,0.0065 -0.0163,0.01299 -0.0243,0.01964 -0.005,0.0052 -0.01,0.0104 -0.0145,0.01602 -0.006,0.0063 -0.009,0.01304 -0.0145,0.01964 -0.004,0.0055 -0.008,0.01097 -0.0114,0.01654 l -0.0646,0.139009 c -0.002,0.0055 -0.004,0.01102 -0.006,0.01654 -0.003,0.0089 -0.006,0.01756 -0.009,0.02636 -0.004,0.009 -0.007,0.01839 -0.0103,0.02739 -0.004,0.0088 -0.007,0.01745 -0.0103,0.02635 -0.003,0.0094 -0.006,0.01882 -0.008,0.02842 -0.001,0.0063 -0.003,0.01229 -0.004,0.0186 v 5.17e-4 l 5.1e-4,0.02067 h 5.2e-4 c 0,0.002 -1.2e-4,0.0036 -5.2e-4,0.0052 v 5.17e-4 l 0.006,0.359668 c 0.0494,1.13508 0.98426,2.149575 2.32854,2.52646 0.20164,0.05651 0.37865,0.114908 0.39325,0.129708 l 0.0486,0.02137 c 0.0979,0.09908 0.0902,0.03286 0.18565,-0.124064 1.06336,-1.74828 1.71731,-3.097698 1.22357,-3.691343 -0.10362,-0.124585 -0.22933,-0.214683 -0.37001,-0.259933 h -5.1e-4 c -0.10535,-0.03389 -0.21936,-0.04254 -0.33848,-0.0217 z m -7.03937,0.850594 c -0.43515,0.07686 -0.80486,0.671758 -1.20767,1.890841 l -0.20361,0.6165 -0.42116,0.377754 c -1.96413,1.76176 -4.09598,2.474668 -6.78822,2.270663 -0.92023,-0.06973 -0.91909,-0.06916 -0.91932,-0.484725 -0.002,-2.885915 -0.98369,-4.612858 -2.37143,-4.170288 -2.01179,0.641585 -0.87157,4.082875 1.5844,4.78162 0.48262,0.1373 0.45544,0.09498 0.47284,0.722953 0.11494,4.15721 -1.15763,9.351868 -3.27681,13.375928 -3.80727,7.229655 -8.38162,11.146471 -12.75736,10.923881 -4.08731,-0.20792 -6.70879,-2.429279 -8.02535,-6.800619 -0.66673,-2.213745 -1.4002,-3.25338 -2.29185,-3.24838 -0.94383,0.0055 -0.93361,1.373617 0.0279,3.733622 1.75588,4.30954 4.7312,6.75974 8.77931,7.23005 0.31395,0.0365 0.59376,0.06883 0.62166,0.07183 2.39279,0.24469 6.36286,-1.621953 8.88577,-4.177523 5.33441,-5.40353 8.39103,-13.035547 8.40103,-20.978047 l 10e-4,-0.686263 0.12764,0.03256 c 2.12693,0.540075 5.40619,-0.24042 7.34167,-1.74718 0.37997,-0.2958 0.36999,-0.31824 0.19275,0.415995 -1.57133,6.509345 -1.44226,11.018328 0.38603,13.494783 2.18499,2.959675 6.43147,-2.231543 7.14065,-8.729183 0.0346,-0.316975 0.0706,-0.568139 0.0796,-0.559139 0.009,0.0094 0.0843,0.696307 0.16691,1.526522 0.46975,4.71897 1.02502,6.712357 2.38797,8.572087 2.07329,2.828995 4.64525,2.879827 7.35097,0.145727 0.57123,-0.577205 1.42989,-1.681684 1.42989,-1.839164 0,-0.32324 -0.4263,-0.33115 -0.65836,-0.0124 -0.70592,0.969555 -1.66173,1.942077 -2.4567,2.500622 -1.99541,1.402015 -3.5891,1.041963 -5.24619,-1.185457 -1.32727,-1.7841 -1.83091,-3.663582 -2.52697,-9.428882 -0.2263,-1.87427 -0.43735,-2.262209 -1.19063,-2.189014 -1.16468,0.11322 -1.64597,1.116101 -2.18901,4.560446 -0.71777,4.552565 -1.45149,6.593472 -2.48151,6.902937 -1.07491,0.32297 -2.31904,-1.619749 -2.72644,-4.257104 -0.30871,-1.99838 0.0934,-6.018954 0.95498,-9.546704 l 0.26148,-1.070219 0.45372,-0.419096 c 1.30647,-1.207215 1.76148,-2.206464 1.15083,-2.525944 -0.16335,-0.08546 -0.31537,-0.117619 -0.46044,-0.09198 z m -86.459317,0.580843 h 5.179012 5.178495 v 6.061129 6.061645 h -5.178495 -5.179012 v -6.061645 z m 16.450159,1.489832 h 1.396297 1.396297 v 5.41879 5.419308 h -1.396297 -1.396297 v -5.419308 z m 18.263484,0.641821 0.08681,0.205672 c 0.0477,0.113 0.91092,2.286001 1.91875,4.828646 1.00784,2.542635 1.86379,4.698089 1.90169,4.789889 l 0.0687,0.166914 h -3.40548 -3.406014 l 0.02635,-0.08992 c 0.01444,-0.04944 0.633881,-2.239491 1.376661,-4.866886 0.742765,-2.627405 1.369046,-4.835044 1.391646,-4.905644 z m -55.234354,0.117822 c 0.01953,-0.02009 0.214805,0.62703 0.434082,1.438155 0.219273,0.81113 0.80543,2.97731 1.302762,4.81366 0.497336,1.83635 0.920348,3.402191 0.939478,3.479891 l 0.03462,0.141593 h -1.298112 -1.298628 l -0.07131,-0.243912 c -0.03924,-0.1342 -0.407876,-1.492324 -0.819588,-3.017904 l -0.748792,-2.773991 0.745174,-1.900659 c 0.409705,-1.045315 0.760789,-1.916733 0.780314,-1.936833 z m 40.398567,0.58291 c 0.06494,0.12094 1.3547,2.911923 3.22461,6.978903 0.357215,0.776915 0.764461,1.661028 0.905371,1.964738 l 0.256315,0.551904 h -2.231388 -2.231389 l 0.0015,-4.815727 c 0.0018,-4.21392 0.01115,-4.798583 0.07493,-4.679818 z m -42.489396,4.796607 c 0.106553,0.358695 1.185974,4.398905 1.185974,4.439005 0,0.0376 -0.462796,0.05478 -1.472261,0.05478 -0.847404,0 -1.472779,-0.02022 -1.472779,-0.04702 0,-0.02563 0.180057,-0.504983 0.399976,-1.065568 0.219919,-0.56059 0.61216,-1.562319 0.871781,-2.225704 0.259625,-0.663385 0.479109,-1.183185 0.487309,-1.155485 z m 93.186557,1.814876 c 1.5233,0.08131 2.2279,3.191039 1.2082,6.377389 -0.82648,2.582615 -1.53634,3.625468 -2.77451,4.076753 -3.90329,1.422675 -3.07911,-8.380008 0.86558,-10.294978 0.24839,-0.120579 0.48312,-0.170779 0.70073,-0.159164 z m -59.608245,3.038058 h 1.751831 1.751315 v 3.44165 3.44165 h -1.751315 -1.751831 v -3.44165 z m 5.483387,0 h 1.396297 1.396297 v 3.44165 3.44165 h -1.396297 -1.396297 v -3.44165 z m 9.990087,0.01188 c 0.74112,-0.0072 1.355292,-0.0049 1.365292,0.0052 0.01,0.01058 0.01205,1.341387 0.0052,2.957959 l -0.01292,2.939355 -0.442867,-0.966866 C 92.319739,54.343877 91.7114,53.019399 91.21097,51.931714 l -0.910022,-1.977657 z m -26.440246,0.142627 h 5.179012 5.178495 v 3.364653 3.364135 h -0.456819 c -0.372327,0 -0.45682,0.0142 -0.45682,0.077 0,0.0627 0.08449,0.077 0.45682,0.077 h 0.456819 v 0.745174 0.744658 h -5.178495 -5.179012 v -4.186308 z m 2.819983,15.4342 c 0.130442,-0.02704 0.240915,0.08624 0.480591,0.24443 1.386912,0.915434 1.277263,2.525342 0.472322,3.662825 -0.556555,-0.856917 -2.531506,-2.065261 -1.55236,-3.308325 0.318701,-0.4046 0.469005,-0.571888 0.599447,-0.59893 z"
       sodipodi:nodetypes="csssccssssscccscssscscsssssssssssccccsssssssssccccsssccssssssccsccccccccssscccccssccccccsscccccsccccccscccsccsscccccccsssccccccccccccccccccccccccccssssscccccccccccccsscccsscccsccccccccccsscccccccccccccccccccccccccccccccccccscccsccccccccccscccsccccccccccccsscscccccsssssssccscccccsscsscssscsscsscscccsccssssssssssscscccccccccccccccscccscsccccssssscssscsccscccccccssccccssccscscsccccccsccccscccccccccccccccccccscccscccccccsscssccssccscccccsscsccssscssscssscccscccccccccccccccccccccsscccccsccsssccccscccscscccccccssssssssssssscccccccccccccccccccccccccccccccssscccccccsccss" /><path
       style="fill:none;stroke-width:0.264583"
       d="m 155.21125,37.348263 c 0.13973,-0.64788 0.50696,-0.77021 0.50696,-0.77021 l 0.62605,0.04581 -0.42754,-0.251947 c -0.0229,0.09925 -0.0916,-0.0076 -0.0916,-0.0076 l 0.62605,-0.0076"
       id="path17" /></g></svg>
